HIERARCHY
ROOT Hips
{
	OFFSET 0.00000 0.00000 0.00000
	CHANNELS 6 Xposition Yposition Zposition Zrotation Yrotation Xrotation 
	JOINT LHipJoint
	{
		OFFSET 0 0 0
		CHANNELS 3 Zrotation Yrotation Xrotation
		JOINT LeftHip
		{
			OFFSET 1.38691 -1.89057 0.78360
			CHANNELS 3 Zrotation Yrotation Xrotation
			JOINT LeftKnee
			{
				OFFSET 2.59731 -7.13606 0.00000
				CHANNELS 3 Zrotation Yrotation Xrotation
				JOINT LeftAnkle
				{
					OFFSET 2.70078 -7.42033 0.00000
					CHANNELS 3 Zrotation Yrotation Xrotation
					JOINT LeftToe
					{
						OFFSET 0.16751 -0.46024 2.68862
						CHANNELS 3 Zrotation Yrotation Xrotation
						End Site
						{
							OFFSET 0.00000 -0.00000 1.37057
						}
					}
				}
			}
		}
	}
	JOINT RHipJoint
	{
		OFFSET 0 0 0
		CHANNELS 3 Zrotation Yrotation Xrotation
		JOINT RightHip
		{
			OFFSET -1.38190 -1.89056 0.78359
			CHANNELS 3 Zrotation Yrotation Xrotation
			JOINT RightKnee
			{
				OFFSET -2.57785 -7.08258 0.00000
				CHANNELS 3 Zrotation Yrotation Xrotation
				JOINT RightAnkle
				{
					OFFSET -2.77908 -7.63547 0.00000
					CHANNELS 3 Zrotation Yrotation Xrotation
					JOINT RightToe
					{
						OFFSET -0.17921 -0.49237 2.62360
						CHANNELS 3 Zrotation Yrotation Xrotation
						End Site
						{
							OFFSET -0.00000 -0.00000 1.34085
						}
					}
				}
			}
		}
	}
	JOINT lowerback
	{
		OFFSET 0 0 0
		CHANNELS 3 Zrotation Yrotation Xrotation
		JOINT Chest
		{
			OFFSET -0.10749 2.04110 -0.22549
			CHANNELS 3 Zrotation Yrotation Xrotation
			JOINT Chest2
			{
				OFFSET 0.01213 2.05840 0.00691
				CHANNELS 3 Zrotation Yrotation Xrotation
				JOINT lowerneck
				{
					OFFSET 0 0 0
					CHANNELS 3 Zrotation Yrotation Xrotation
					JOINT Neck
					{
						OFFSET 0.06585 1.81215 0.35449
						CHANNELS 3 Zrotation Yrotation Xrotation
						JOINT Head
						{
							OFFSET -0.04315 1.87555 -0.27307
							CHANNELS 3 Zrotation Yrotation Xrotation
							End Site
							{
								OFFSET -0.01775 1.89740 -0.13294
							}
						}
					}
				}
				JOINT LeftCollar
				{
					OFFSET 0 0 0
					CHANNELS 3 Zrotation Yrotation Xrotation
					JOINT LeftShoulder
					{
						OFFSET 2.98012 1.63606 0.28888
CHANNELS 3 Zrotation Xrotation Yrotation
						JOINT LeftElbow
						{
OFFSET 0 -5.598640 -0.000000
CHANNELS 3 Zrotation Xrotation Yrotation
							JOINT LeftWrist
							{
OFFSET 0 -3.595420 -0.000000
CHANNELS 3 Zrotation Xrotation Yrotation
								JOINT lhand
								{
									OFFSET 0 0 0
CHANNELS 3 Zrotation Xrotation Yrotation
									JOINT LFingers
									{
OFFSET 0 -0.572010 -0.000000
CHANNELS 3 Zrotation Xrotation Yrotation
										End Site
										{
OFFSET 0 -0.461170 -0.000000
										}
									}
								}
								JOINT LThumb
								{
OFFSET 0 0.000000 0.000000
CHANNELS 3 Zrotation Xrotation Yrotation
									End Site
									{
OFFSET 0 -0.468210 0.468210
									}
								}
							}
						}
					}
				}
				JOINT RightCollar
				{
					OFFSET 0 0 0
					CHANNELS 3 Zrotation Yrotation Xrotation
					JOINT RightShoulder
					{
						OFFSET -3.08694 1.53706 0.36335
CHANNELS 3 Zrotation Xrotation Yrotation
						JOINT RightElbow
						{
OFFSET 0 -5.809400 -0.000000
CHANNELS 3 Zrotation Xrotation Yrotation
							JOINT RightWrist
							{
OFFSET 0 -3.669530 -0.000000
CHANNELS 3 Zrotation Xrotation Yrotation
								JOINT rhand
								{
									OFFSET 0 0 0
CHANNELS 3 Zrotation Xrotation Yrotation
									JOINT RFingers
									{
OFFSET 0 -0.578430 -0.000000
CHANNELS 3 Zrotation Xrotation Yrotation
										End Site
										{
OFFSET 0 -0.466350 -0.000000
										}
									}
								}
								JOINT RThumb
								{
OFFSET 0 0.000000 0.000000
CHANNELS 3 Zrotation Xrotation Yrotation
									End Site
									{
OFFSET 0 -0.473470 0.473470
									}
								}
							}
						}
					}
				}
			}
		}
	}
}
MOTION
Frames: 11
Frame Time: 0.008333333333333333
18.594035 18.334713 25.209060 -49.520750 80.015893 -42.812822 0.000000 0.000000 0.000000 5.267707 -19.742637 -30.408588 10.330311 17.591260 60.586541 4.494427 -9.111202 -38.730170 2.149041 -9.169869 -26.328189 0.000000 0.000000 0.000000 20.177153 7.391149 -39.548899 -9.810982 -17.301942 58.854425 -1.753496 15.676832 -24.605372 -0.215074 2.983274 -8.232382 -7.575443 -3.162215 17.095787 -0.296149 -5.564621 1.175467 5.220117 -2.404191 -7.603265 -7.617652 -13.899877 -14.154836 10.670796 -21.855108 33.702445 1.613112 -8.615344 16.749805 0.000000 0.000000 0.000000 12.896007 -24.820415 -49.786006 35.105659 -44.887202 14.887918 37.444860 -28.445930 3.252572 0.000000 0.000000 0.000000 -7.125000 0.000000 0.000000 8.183941 25.874038 3.828367 0.000000 0.000000 0.000000 -11.479492 20.201766 40.652882 -42.212620 -49.324331 -20.102598 -41.015324 -9.409073 -7.498977 0.000000 0.000000 0.000000 7.125000 0.000000 0.000000 -10.155089 20.156664 -6.129510
18.566317 18.318521 25.384910 -49.025176 79.937057 -42.388992 0.000000 0.000000 0.000000 5.341814 -19.793363 -30.477007 10.398704 17.627893 60.812703 4.490094 -9.079834 -38.712693 2.133525 -9.138845 -26.230634 0.000000 0.000000 0.000000 20.179551 7.476351 -39.744841 -9.895981 -17.350787 59.139973 -1.735276 15.559586 -24.467510 -0.208485 2.938948 -8.108976 -7.589863 -3.114200 17.094122 -0.335725 -5.505236 1.192898 5.172220 -2.376122 -7.594247 -7.592079 -13.918408 -14.166150 10.601955 -21.872775 33.758083 1.576267 -8.624753 16.766761 0.000000 0.000000 0.000000 13.169345 -24.541717 -49.448607 34.962900 -44.785303 14.787298 37.791000 -28.498987 3.152685 0.000000 0.000000 0.000000 -7.125000 0.000000 0.000000 8.454677 25.978916 3.936997 0.000000 0.000000 0.000000 -11.408651 20.169330 40.562527 -41.694666 -49.040746 -19.710154 -40.844853 -9.294009 -7.539919 0.000000 0.000000 0.000000 7.125000 0.000000 0.000000 -10.029317 20.126824 -6.058301
18.538428 18.302869 25.561584 -48.464326 79.834494 -41.918987 0.000000 0.000000 0.000000 5.418389 -19.819739 -30.520678 10.469140 17.665121 61.044938 4.484257 -9.061890 -38.687355 2.113808 -9.099109 -26.105891 0.000000 0.000000 0.000000 20.200651 7.579519 -39.925968 -9.984101 -17.400511 59.434688 -1.733460 15.390177 -24.418651 -0.219208 3.012713 -8.314360 -7.637771 -3.073166 17.101170 -0.349475 -5.459359 1.220831 5.173733 -2.354071 -7.570812 -7.692998 -13.926580 -14.146217 10.638492 -21.877358 33.789172 1.606145 -8.633055 16.801568 0.000000 0.000000 0.000000 13.417708 -24.280728 -49.070311 34.781600 -44.654938 14.659831 38.135267 -28.504478 3.059808 0.000000 0.000000 0.000000 -7.125000 0.000000 0.000000 8.723795 26.076160 4.044661 0.000000 0.000000 0.000000 -11.403851 20.114417 40.530011 -41.205376 -48.764710 -19.341889 -40.746355 -9.125248 -7.514365 0.000000 0.000000 0.000000 7.125000 0.000000 0.000000 -9.964761 20.172873 -6.007669
18.510532 18.287191 25.738221 -47.894149 79.730864 -41.439879 0.000000 0.000000 0.000000 5.493678 -19.843625 -30.563825 10.539573 17.702322 61.277128 4.478724 -9.043099 -38.663481 2.094489 -9.060173 -25.983663 0.000000 0.000000 0.000000 20.221128 7.683967 -40.106806 -10.072255 -17.450215 59.729462 -1.731465 15.220634 -24.368680 -0.229739 3.085111 -8.515938 -7.685712 -3.030975 17.107874 -0.364122 -5.411988 1.248816 5.173962 -2.331304 -7.547424 -7.794405 -13.935466 -14.125328 10.677294 -21.883587 33.818764 1.636708 -8.641935 16.836123 0.000000 0.000000 0.000000 13.666108 -24.020613 -48.695474 34.599790 -44.524135 14.532028 38.478994 -28.508315 2.965975 0.000000 0.000000 0.000000 -7.125000 0.000000 0.000000 8.992663 26.174691 4.151842 0.000000 0.000000 0.000000 -11.396979 20.060039 40.493322 -40.716991 -48.488843 -18.974410 -40.646916 -8.958818 -7.491004 0.000000 0.000000 0.000000 7.125000 0.000000 0.000000 -9.899190 20.216231 -5.957015
18.482427 18.270717 25.913727 -47.031320 79.593710 -40.675159 0.000000 0.000000 0.000000 5.528571 -19.789404 -30.590547 10.609922 17.738642 61.507893 4.482745 -8.997742 -38.685533 2.087657 -9.046336 -25.940381 0.000000 0.000000 0.000000 20.222036 7.828601 -40.278594 -10.161457 -17.499247 60.026080 -1.723855 15.046901 -24.283845 -0.234236 3.114600 -8.598091 -7.734658 -2.952453 17.103810 -0.406929 -5.317728 1.278478 5.133880 -2.286120 -7.525545 -7.911106 -13.966727 -14.074436 10.787163 -21.941440 33.801426 1.688767 -8.668959 16.862758 0.000000 0.000000 0.000000 13.915638 -23.787946 -48.429167 34.401973 -44.379588 14.393707 38.805792 -28.460233 2.842139 0.000000 0.000000 0.000000 -7.125000 0.000000 0.000000 9.253695 26.313617 4.243854 0.000000 0.000000 0.000000 -11.325073 20.022465 40.325685 -40.256974 -48.218299 -18.631570 -40.517935 -8.865509 -7.536448 0.000000 0.000000 0.000000 7.125000 0.000000 0.000000 -9.801730 20.175154 -5.905690
18.454322 18.254243 26.089233 -46.168491 79.456557 -39.910439 0.000000 0.000000 0.000000 5.563465 -19.735182 -30.617268 10.680272 17.774963 61.738658 4.486767 -8.952384 -38.707585 2.080826 -9.032500 -25.897099 0.000000 0.000000 0.000000 20.222944 7.973235 -40.450381 -10.250658 -17.548280 60.322697 -1.716245 14.873167 -24.199011 -0.238733 3.144088 -8.680245 -7.783604 -2.873932 17.099746 -0.449735 -5.223468 1.308140 5.093797 -2.240935 -7.503667 -8.027807 -13.997989 -14.023544 10.897033 -21.999294 33.784087 1.740827 -8.695983 16.889393 0.000000 0.000000 0.000000 14.165169 -23.555278 -48.162860 34.204155 -44.235041 14.255386 39.132591 -28.412152 2.718304 0.000000 0.000000 0.000000 -7.125000 0.000000 0.000000 9.514727 26.452543 4.335866 0.000000 0.000000 0.000000 -11.253167 19.984890 40.158049 -39.796957 -47.947754 -18.288731 -40.388954 -8.772199 -7.581891 0.000000 0.000000 0.000000 7.125000 0.000000 0.000000 -9.704269 20.134078 -5.854366
18.426278 18.238452 26.264242 -45.176891 79.309002 -39.028002 0.000000 0.000000 0.000000 5.567059 -19.658883 -30.619180 10.746926 17.808861 61.956723 4.490353 -8.929229 -38.725972 2.067783 -9.005839 -25.813667 0.000000 0.000000 0.000000 20.214506 8.109143 -40.610058 -10.334798 -17.593618 60.601305 -1.713262 14.650372 -24.134919 -0.256147 3.252604 -8.983207 -7.868819 -2.818264 17.093818 -0.487759 -5.165258 1.341807 5.086195 -2.212767 -7.467783 -8.119450 -13.995062 -13.996779 10.966566 -21.998490 33.781560 1.784844 -8.699532 16.909507 0.000000 0.000000 0.000000 14.415849 -23.309227 -47.817588 34.015592 -44.095680 14.124083 39.485659 -28.346806 2.560839 0.000000 0.000000 0.000000 -7.125000 0.000000 0.000000 9.801284 26.634911 4.426450 0.000000 0.000000 0.000000 -11.241936 19.915985 40.055776 -39.361316 -47.684506 -17.966261 -40.282330 -8.649050 -7.606934 0.000000 0.000000 0.000000 7.125000 0.000000 0.000000 -9.625720 20.116196 -5.809593
18.398260 18.222930 26.439056 -44.134751 79.157363 -38.099363 0.000000 0.000000 0.000000 5.558368 -19.573919 -30.611353 10.812130 17.841809 62.169804 4.493769 -8.914787 -38.742922 2.052304 -8.974145 -25.714478 0.000000 0.000000 0.000000 20.202399 8.241626 -40.764983 -10.416952 -17.637505 60.872844 -1.712094 14.408322 -24.078968 -0.278631 3.392135 -9.372832 -7.968268 -2.771566 17.087159 -0.523907 -5.121198 1.377047 5.091341 -2.191278 -7.426404 -8.201258 -13.978718 -13.979484 11.020269 -21.974666 33.784846 1.825705 -8.693868 16.927062 0.000000 0.000000 0.000000 14.666979 -23.057924 -47.441324 33.830660 -43.958353 13.995534 39.849037 -28.274683 2.390175 0.000000 0.000000 0.000000 -7.125000 0.000000 0.000000 10.097858 26.834328 4.516473 0.000000 0.000000 0.000000 -11.254519 19.834782 39.979157 -38.935242 -47.424123 -17.651785 -40.184481 -8.514188 -7.623970 0.000000 0.000000 0.000000 7.125000 0.000000 0.000000 -9.554592 20.107419 -5.767392
18.370153 18.207197 26.613362 -43.020461 78.992438 -37.098312 0.000000 0.000000 0.000000 5.535653 -19.468902 -30.601406 10.876019 17.873828 62.378239 4.497290 -8.878048 -38.762150 2.039787 -8.948464 -25.634167 0.000000 0.000000 0.000000 20.182474 8.382786 -40.916752 -10.496126 -17.679394 61.133954 -1.709875 14.173756 -24.018985 -0.298573 3.512613 -9.709500 -8.064141 -2.712984 17.073682 -0.570677 -5.061046 1.409885 5.079430 -2.162075 -7.387531 -8.239943 -13.959236 -13.974757 11.046731 -21.946529 33.786046 1.849176 -8.684295 16.933766 0.000000 0.000000 0.000000 14.930345 -22.818680 -47.117385 33.647971 -43.821834 13.868826 40.142264 -28.221493 2.198249 0.000000 0.000000 0.000000 -7.125000 0.000000 0.000000 10.345561 27.065858 4.573839 0.000000 0.000000 0.000000 -11.237003 19.779120 39.846953 -38.542350 -47.181111 -17.362692 -40.098674 -8.373279 -7.628701 0.000000 0.000000 0.000000 7.125000 0.000000 0.000000 -9.493824 20.112700 -5.728592
18.341919 18.191155 26.786923 -41.800350 78.808025 -35.991054 0.000000 0.000000 0.000000 5.492371 -19.334472 -30.588348 10.937980 17.904484 62.579861 4.500965 -8.808607 -38.784721 2.031615 -8.931601 -25.581545 0.000000 0.000000 0.000000 20.151082 8.536673 -41.063893 -10.570929 -17.718352 61.379766 -1.706113 13.950169 -23.953090 -0.314788 3.605143 -9.968500 -8.154770 -2.636970 17.050203 -0.633027 -4.977292 1.439201 5.042504 -2.121560 -7.352335 -8.215384 -13.935152 -13.988463 11.033240 -21.912068 33.784187 1.847144 -8.668988 16.924556 0.000000 0.000000 0.000000 15.211656 -22.597125 -46.870190 33.468574 -43.686496 13.744818 40.332601 -28.196068 1.975137 0.000000 0.000000 0.000000 -7.125000 0.000000 0.000000 10.521586 27.344489 4.583308 0.000000 0.000000 0.000000 -11.175345 19.760917 39.633224 -38.198126 -46.963576 -17.110827 -40.030530 -8.223500 -7.615383 0.000000 0.000000 0.000000 7.125000 0.000000 0.000000 -9.448251 20.138600 -5.694779
18.313744 18.175298 26.960399 -40.592199 78.617161 -34.896354 0.000000 0.000000 0.000000 5.452723 -19.194634 -30.571440 10.999148 17.934700 62.778839 4.504220 -8.752135 -38.804294 2.019556 -8.906532 -25.503437 0.000000 0.000000 0.000000 20.124283 8.693793 -41.205754 -10.644606 -17.756661 61.621804 -1.702756 13.726213 -23.890047 -0.331756 3.701100 -10.237196 -8.241920 -2.560532 17.025971 -0.694592 -4.892181 1.468745 5.004160 -2.080525 -7.316890 -8.195680 -13.914189 -13.994565 11.021645 -21.881958 33.782368 1.846105 -8.656258 16.915298 0.000000 0.000000 0.000000 15.491068 -22.377301 -46.624200 33.290767 -43.552201 13.621971 40.518009 -28.167899 1.750924 0.000000 0.000000 0.000000 -7.125000 0.000000 0.000000 10.694185 27.624990 4.590289 0.000000 0.000000 0.000000 -11.113987 19.744272 39.417440 -37.859865 -46.749364 -16.863473 -39.967426 -8.078148 -7.600423 0.000000 0.000000 0.000000 7.125000 0.000000 0.000000 -9.406459 20.165934 -5.663006
